<?xml version="1.0" encoding="UTF-8"?>
<svg version="1.1" xmlns="http://www.w3.org/2000/svg" width="259" height="194">
<path d="M0 0 C85.47 0 170.94 0 259 0 C259 64.02 259 128.04 259 194 C173.53 194 88.06 194 0 194 C0 129.98 0 65.96 0 0 Z " fill="#FEFEFE" transform="translate(0,0)"/>
<path d="M0 0 C0.66 0 1.32 0 2 0 C2 0.66 2 1.32 2 2 C4.97 2.495 4.97 2.495 8 3 C8.73282699 6.57253158 9 9.33506364 9 13 C8.01 13.33 7.02 13.66 6 14 C11.445 14.495 11.445 14.495 17 15 C17.495 16.98 17.495 16.98 18 19 C18.66 19 19.32 19 20 19 C20 18.34 20 17.68 20 17 C23.30994713 15.34502644 26.99123 15.89915665 30.625 15.9375 C31.42679688 15.94201172 32.22859375 15.94652344 33.0546875 15.95117188 C35.03649006 15.96296832 37.01825433 15.98090395 39 16 C39.495 16.99 39.495 16.99 40 18 C40.33 17.34 40.66 16.68 41 16 C42.32 16 43.64 16 45 16 C45 18.31 45 20.62 45 23 C48.96 23 52.92 23 57 23 C57 20.69 57 18.38 57 16 C58.32 16 59.64 16 61 16 C61 21.94 61 27.88 61 34 C59.68 34 58.36 34 57 34 C57 31.36 57 28.72 57 26 C53.04 26 49.08 26 45 26 C45 28.64 45 31.28 45 34 C41.4375692 34.05827558 37.87526181 34.09368885 34.3125 34.125 C33.30509766 34.14175781 32.29769531 34.15851563 31.25976562 34.17578125 C29.79506836 34.18544922 29.79506836 34.18544922 28.30078125 34.1953125 C27.40528564 34.20578613 26.50979004 34.21625977 25.5871582 34.22705078 C22.69941018 33.97362003 20.58516304 33.30096476 18 32 C17.72414062 31.31421875 17.44828125 30.6284375 17.1640625 29.921875 C16.77992187 29.28765625 16.39578125 28.6534375 16 28 C13.33517159 27.53290648 11.04929034 27.30427527 8.375 27.25 C7.31539062 27.20552734 7.31539062 27.20552734 6.234375 27.16015625 C4.49019953 27.08944643 2.74509173 27.04245965 1 27 C1 27.99 1 28.98 1 30 C5.95 30 10.9 30 16 30 C16 31.32 16 32.64 16 34 C13.5821288 34.10826289 11.16912444 34.18739789 8.75 34.25 C7.72712891 34.30027344 7.72712891 34.30027344 6.68359375 34.3515625 C3.32857549 34.41670849 1.34347039 34.23188334 -1.46484375 32.3359375 C-3.36055044 29.45137617 -3.44635313 27.79979397 -3.3125 24.375 C-3.28800781 23.41335937 -3.26351562 22.45171875 -3.23828125 21.4609375 C-3 19 -3 19 -2 17 C-2.99 17 -3.98 17 -5 17 C-5 22.61 -5 28.22 -5 34 C-7.64 34 -10.28 34 -13 34 C-13 27.4 -13 20.8 -13 14 C-13.66 14 -14.32 14 -15 14 C-15 15.65 -15 17.3 -15 19 C-16.32 19 -17.64 19 -19 19 C-19 19.66 -19 20.32 -19 21 C-19.99 21 -20.98 21 -22 21 C-21.67 20.01 -21.34 19.02 -21 18 C-20.34 18 -19.68 18 -19 18 C-19 16.68 -19 15.36 -19 14 C-19.639375 13.855625 -20.27875 13.71125 -20.9375 13.5625 C-23 13 -23 13 -24 12 C-24.14115161 9.32941149 -24.04247107 6.67567762 -24 4 C-10.3667426 3.81548975 -10.3667426 3.81548975 -4 5 C-4 5.99 -4 6.98 -4 8 C-2.02 7.34 -0.04 6.68 2 6 C2 5.01 2 4.02 2 3 C1.34 3 0.68 3 0 3 C0 2.01 0 1.02 0 0 Z " fill="#D4E8F2" transform="translate(63,80)"/>
<path d="M0 0 C0.66 0 1.32 0 2 0 C2 0.66 2 1.32 2 2 C3.32 2 4.64 2 6 2 C5.67 3.65 5.34 5.3 5 7 C4.01 7 3.02 7 2 7 C2 7.99 2 8.98 2 10 C2.99 10.33 3.98 10.66 5 11 C1.37 11 -2.26 11 -6 11 C-6 18.59 -6 26.18 -6 34 C-8.31 34 -10.62 34 -13 34 C-13 27.4 -13 20.8 -13 14 C-13.66 14 -14.32 14 -15 14 C-15 15.65 -15 17.3 -15 19 C-16.32 19 -17.64 19 -19 19 C-19 19.66 -19 20.32 -19 21 C-19.99 21 -20.98 21 -22 21 C-21.67 20.01 -21.34 19.02 -21 18 C-20.34 18 -19.68 18 -19 18 C-19 16.68 -19 15.36 -19 14 C-19.639375 13.855625 -20.27875 13.71125 -20.9375 13.5625 C-23 13 -23 13 -24 12 C-24.14115161 9.32941149 -24.04247107 6.67567762 -24 4 C-10.3667426 3.81548975 -10.3667426 3.81548975 -4 5 C-4 5.99 -4 6.98 -4 8 C-2.02 7.34 -0.04 6.68 2 6 C2 5.01 2 4.02 2 3 C1.34 3 0.68 3 0 3 C0 2.01 0 1.02 0 0 Z " fill="#67CEF3" transform="translate(63,80)"/>
<path d="M0 0 C0.66 0.66 1.32 1.32 2 2 C2.33 1.34 2.66 0.68 3 0 C4.32 0 5.64 0 7 0 C7 2.31 7 4.62 7 7 C10.96 7 14.92 7 19 7 C19 4.69 19 2.38 19 0 C20.32 0 21.64 0 23 0 C23 5.94 23 11.88 23 18 C21.68 18 20.36 18 19 18 C19 15.36 19 12.72 19 10 C15.04 10 11.08 10 7 10 C7 12.64 7 15.28 7 18 C4.69 18 2.38 18 0 18 C0 16.68 0 15.36 0 14 C-4.95 14 -9.9 14 -15 14 C-15.09765625 6.28515625 -15.09765625 6.28515625 -15 4 C-14 3 -14 3 -10.83984375 2.90234375 C-8.90818359 2.91974609 -8.90818359 2.91974609 -6.9375 2.9375 C-5.64714844 2.94652344 -4.35679688 2.95554687 -3.02734375 2.96484375 C-2.02832031 2.97644531 -1.02929688 2.98804687 0 3 C0 2.01 0 1.02 0 0 Z " fill="#FAFAF9" transform="translate(101,96)"/>
<path d="M0 0 C0.78052734 -0.00322266 1.56105469 -0.00644531 2.36523438 -0.00976562 C8.17033019 0.04533019 8.17033019 0.04533019 10.4375 2.3125 C10.73828125 5.5 10.73828125 5.5 10.75 9.3125 C10.76675781 10.570625 10.78351563 11.82875 10.80078125 13.125 C10.68089844 14.176875 10.56101563 15.22875 10.4375 16.3125 C6.76994001 18.75753999 4.86271863 18.58081152 0.5 18.5625 C-0.72589844 18.56765625 -1.95179688 18.5728125 -3.21484375 18.578125 C-6.3158544 18.33207048 -8.02649009 18.0479863 -10.5625 16.3125 C-11.85254296 13.73241408 -11.76660224 11.75508426 -11.8125 8.875 C-11.83828125 7.90691406 -11.8640625 6.93882813 -11.890625 5.94140625 C-11.05047961 -0.78975858 -5.59020923 -0.11597944 0 0 Z " fill="#69CEF4" transform="translate(163.5625,95.6875)"/>
<path d="M0 0 C7 0 7 0 8.71264648 1.19335938 C9.28607788 2.01030273 9.28607788 2.01030273 9.87109375 2.84375 C10.51401367 3.72353516 10.51401367 3.72353516 11.16992188 4.62109375 C11.58822266 5.24113281 12.00652344 5.86117187 12.4375 6.5 C12.88287109 7.12003906 13.32824219 7.74007812 13.78710938 8.37890625 C14.87867023 9.90474401 15.94220918 11.45055993 17 13 C17.33 8.71 17.66 4.42 18 0 C19.32 0 20.64 0 22 0 C22.02684312 2.81256281 22.04676188 5.62487241 22.0625 8.4375 C22.07087891 9.23994141 22.07925781 10.04238281 22.08789062 10.86914062 C22.0965143 12.91295221 22.0522815 14.95683902 22 17 C21 18 21 18 18.6640625 18.296875 C16 18 16 18 14.0859375 16.390625 C13.23902344 15.33101562 13.23902344 15.33101562 12.375 14.25 C11.80523437 13.55390625 11.23546875 12.8578125 10.6484375 12.140625 C10.10445312 11.43421875 9.56046875 10.7278125 9 10 C8.15308594 8.94039062 8.15308594 8.94039062 7.2890625 7.859375 C6 6 6 6 6 4 C5.34 4 4.68 4 4 4 C4 8.62 4 13.24 4 18 C2.68 18 1.36 18 0 18 C0 12.06 0 6.12 0 0 Z " fill="#6FCFF1" transform="translate(127,96)"/>
<path d="M0 0 C2.75 0.5625 2.75 0.5625 4.05078125 2.13671875 C5.34872705 4.24638298 6.5465443 6.39784267 7.75 8.5625 C8.513125 9.635 9.27625 10.7075 10.0625 11.8125 C11.75 14.5625 11.75 14.5625 11.75 18.5625 C10.43 18.5625 9.11 18.5625 7.75 18.5625 C7.42 17.2425 7.09 15.9225 6.75 14.5625 C2.46 14.5625 -1.83 14.5625 -6.25 14.5625 C-6.58 15.8825 -6.91 17.2025 -7.25 18.5625 C-8.57 18.5625 -9.89 18.5625 -11.25 18.5625 C-9.7446106 12.9925592 -6.19206947 1.54801737 0 0 Z " fill="#74D0F3" transform="translate(207.25,95.4375)"/>
<path d="M0 0 C0.74958984 0.01353516 1.49917969 0.02707031 2.27148438 0.04101562 C4.11879767 0.07631461 5.96574066 0.13012083 7.8125 0.1875 C7.8125 1.1775 7.8125 2.1675 7.8125 3.1875 C3.1925 3.5175 -1.4275 3.8475 -6.1875 4.1875 C-6.5175 5.1775 -6.8475 6.1675 -7.1875 7.1875 C-2.2375 7.1875 2.7125 7.1875 7.8125 7.1875 C7.8125 8.1775 7.8125 9.1675 7.8125 10.1875 C2.8625 10.1875 -2.0875 10.1875 -7.1875 10.1875 C-7.1875 11.5075 -7.1875 12.8275 -7.1875 14.1875 C-2.2375 14.1875 2.7125 14.1875 7.8125 14.1875 C7.8125 15.5075 7.8125 16.8275 7.8125 18.1875 C5.3946288 18.29576289 2.98162444 18.37489789 0.5625 18.4375 C-0.46037109 18.48777344 -0.46037109 18.48777344 -1.50390625 18.5390625 C-4.85924326 18.60421467 -6.84035594 18.42316059 -9.64453125 16.51953125 C-11.52917039 13.67110196 -11.6942712 12.01928885 -11.625 8.625 C-11.62371094 7.67496094 -11.62242188 6.72492188 -11.62109375 5.74609375 C-11.1875 3.1875 -11.1875 3.1875 -10.171875 1.359375 C-6.97268427 -0.52991087 -3.5991256 -0.1225903 0 0 Z " fill="#2088C2" transform="translate(71.1875,95.8125)"/>
<path d="M0 0 C1.32 0 2.64 0 4 0 C4 2.31 4 4.62 4 7 C7.96 7 11.92 7 16 7 C16 4.69 16 2.38 16 0 C17.32 0 18.64 0 20 0 C20 5.94 20 11.88 20 18 C18.68 18 17.36 18 16 18 C16 15.36 16 12.72 16 10 C12.04 10 8.08 10 4 10 C4 12.64 4 15.28 4 18 C2.68 18 1.36 18 0 18 C0 12.06 0 6.12 0 0 Z " fill="#1383BF" transform="translate(104,96)"/>
<path d="M0 0 C1.9375 0.8125 1.9375 0.8125 4 2 C5.04616643 5.1384993 5.04169366 7.05038303 4.87890625 10.32421875 C4.83056641 11.35224609 4.78222656 12.38027344 4.73242188 13.43945312 C4.67634766 14.51130859 4.62027344 15.58316406 4.5625 16.6875 C4.51029297 17.77095703 4.45808594 18.85441406 4.40429688 19.97070312 C4.27458784 22.64742591 4.13962067 25.32377888 4 28 C2.02 28 0.04 28 -2 28 C-2.25451584 23.89699077 -2.47426446 19.79284524 -2.6875 15.6875 C-2.76033203 14.52025391 -2.83316406 13.35300781 -2.90820312 12.15039062 C-2.96298828 11.03212891 -3.01777344 9.91386719 -3.07421875 8.76171875 C-3.13182373 7.73006592 -3.18942871 6.69841309 -3.2487793 5.63549805 C-3 3 -3 3 -1.49536133 1.13989258 C-1.00189209 0.76372803 -0.50842285 0.38756348 0 0 Z " fill="#0C83BE" transform="translate(53,86)"/>
<path d="M0 0 C0.74958984 0.01353516 1.49917969 0.02707031 2.27148438 0.04101562 C4.11879767 0.07631461 5.96574066 0.13012083 7.8125 0.1875 C7.8125 1.1775 7.8125 2.1675 7.8125 3.1875 C3.1925 3.5175 -1.4275 3.8475 -6.1875 4.1875 C-6.5175 7.4875 -6.8475 10.7875 -7.1875 14.1875 C-2.2375 14.1875 2.7125 14.1875 7.8125 14.1875 C7.8125 15.5075 7.8125 16.8275 7.8125 18.1875 C5.3946288 18.29576289 2.98162444 18.37489789 0.5625 18.4375 C-0.46037109 18.48777344 -0.46037109 18.48777344 -1.50390625 18.5390625 C-4.85924326 18.60421467 -6.84035594 18.42316059 -9.64453125 16.51953125 C-11.52917039 13.67110196 -11.6942712 12.01928885 -11.625 8.625 C-11.62371094 7.67496094 -11.62242188 6.72492188 -11.62109375 5.74609375 C-11.1875 3.1875 -11.1875 3.1875 -10.171875 1.359375 C-6.97268427 -0.52991087 -3.5991256 -0.1225903 0 0 Z " fill="#1480BC" transform="translate(93.1875,95.8125)"/>
<path d="M0 0 C1.79244141 0.01740234 1.79244141 0.01740234 3.62109375 0.03515625 C5.41740234 0.04869141 5.41740234 0.04869141 7.25 0.0625 C8.17683594 0.07410156 9.10367188 0.08570312 10.05859375 0.09765625 C10.08547526 1.74340191 10.10493498 3.38927038 10.12109375 5.03515625 C10.13269531 5.95167969 10.14429688 6.86820312 10.15625 7.8125 C10.05859375 10.09765625 10.05859375 10.09765625 9.05859375 11.09765625 C6.87219922 11.17024571 4.68358986 11.18139408 2.49609375 11.16015625 C0.69978516 11.14662109 0.69978516 11.14662109 -1.1328125 11.1328125 C-2.05964844 11.12121094 -2.98648438 11.10960938 -3.94140625 11.09765625 C-3.96828776 9.45191059 -3.98774748 7.80604212 -4.00390625 6.16015625 C-4.01550781 5.24363281 -4.02710938 4.32710938 -4.0390625 3.3828125 C-3.89090453 -0.08408389 -3.52446843 0.11701422 0 0 Z " fill="#F2FAFC" transform="translate(159.94140625,98.90234375)"/>
<path d="M0 0 C2.32421875 0.19140625 2.32421875 0.19140625 5 1 C6.58203125 3.21484375 6.58203125 3.21484375 7.8125 5.9375 C8.23144531 6.83339844 8.65039062 7.72929688 9.08203125 8.65234375 C10 11 10 11 10 13 C10.99 13 11.98 13 13 13 C13.2475 12.154375 13.495 11.30875 13.75 10.4375 C15.13973627 6.61572526 16.91120838 3.48131937 19 0 C20.32 0 21.64 0 23 0 C21.65180734 4.42313454 19.93678873 8.33525748 17.6875 12.375 C17.11386719 13.43460938 16.54023438 14.49421875 15.94921875 15.5859375 C14 18 14 18 11.45703125 18.5390625 C8.58675138 17.90933496 7.73844245 17.33683807 6 15 C3.45588314 10.24675676 1.58315061 5.14523949 0 0 Z " fill="#7BD2F2" transform="translate(176,96)"/>
<path d="M0 0 C0.66 0.99 1.32 1.98 2 3 C1.67 3.66 1.34 4.32 1 5 C1.33 5.33 1.66 5.66 2 6 C2 7.32 2 8.64 2 10 C0.60984189 10.67842139 -0.7874527 11.342229 -2.1875 12 C-2.96480469 12.37125 -3.74210937 12.7425 -4.54296875 13.125 C-7 14 -7 14 -12 14 C-12 19.61 -12 25.22 -12 31 C-12.33 31 -12.66 31 -13 31 C-13 23.41 -13 15.82 -13 8 C-10.36 7.67 -7.72 7.34 -5 7 C-5 6.01 -5 5.02 -5 4 C-4.01 3.67 -3.02 3.34 -2 3 C-1.34 2.01 -0.68 1.02 0 0 Z " fill="#E9F5F6" transform="translate(70,83)"/>
<path d="M0 0 C4.29 0 8.58 0 13 0 C13 0.33 13 0.66 13 1 C9.04 1 5.08 1 1 1 C1 2.98 1 4.96 1 7 C4.63 7 8.26 7 12 7 C12 14.59 12 22.18 12 30 C11.67 30 11.34 30 11 30 C11 23.4 11 16.8 11 10 C10.34 10 9.68 10 9 10 C9 11.65 9 13.3 9 15 C7.68 15 6.36 15 5 15 C5 15.66 5 16.32 5 17 C4.01 17 3.02 17 2 17 C2.33 16.01 2.66 15.02 3 14 C3.66 14 4.32 14 5 14 C5 12.68 5 11.36 5 10 C4.360625 9.855625 3.72125 9.71125 3.0625 9.5625 C1 9 1 9 0 8 C-0.14115161 5.32941149 -0.04247107 2.67567762 0 0 Z " fill="#CBE4F3" transform="translate(39,84)"/>
<path d="M0 0 C0.74958984 0.01353516 1.49917969 0.02707031 2.27148438 0.04101562 C4.11879767 0.07631461 5.96574066 0.13012083 7.8125 0.1875 C7.8125 1.1775 7.8125 2.1675 7.8125 3.1875 C2.8625 3.5175 -2.0875 3.8475 -7.1875 4.1875 C-7.5175 8.4775 -7.8475 12.7675 -8.1875 17.1875 C-11.1875 14.1875 -11.1875 14.1875 -11.5859375 11.59375 C-11.57820313 10.6346875 -11.57046875 9.675625 -11.5625 8.6875 C-11.57023437 7.7284375 -11.57796875 6.769375 -11.5859375 5.78125 C-11.1875 3.1875 -11.1875 3.1875 -10.17578125 1.35546875 C-6.97238936 -0.52628798 -3.59974639 -0.12261145 0 0 Z " fill="#2387BD" transform="translate(71.1875,95.8125)"/>
<path d="M0 0 C0.33 0.99 0.66 1.98 1 3 C1.33 2.01 1.66 1.02 2 0 C2.99 0.33 3.98 0.66 5 1 C3.74606955 3.82034055 2.4691052 6.62963992 1.1875 9.4375 C0.83107422 10.23994141 0.47464844 11.04238281 0.10742188 11.86914062 C-0.24384766 12.63291016 -0.59511719 13.39667969 -0.95703125 14.18359375 C-1.27647705 14.89056396 -1.59592285 15.59753418 -1.92504883 16.32592773 C-3 18 -3 18 -6 19 C-6.99 18.67 -7.98 18.34 -9 18 C-7.45614871 13.85967154 -5.48971062 10.06446947 -3.375 6.1875 C-3.05015625 5.59001953 -2.7253125 4.99253906 -2.390625 4.37695312 C-1.59620849 2.91662865 -0.79844624 1.45812509 0 0 Z " fill="#EFF8FA" transform="translate(199,96)"/>
<path d="M0 0 C0.33 0 0.66 0 1 0 C1 3.3 1 6.6 1 10 C1.99 10.33 2.98 10.66 4 11 C0.32077133 13.45281911 -1.62259351 13.26823919 -6 13.25 C-7.2375 13.25515625 -8.475 13.2603125 -9.75 13.265625 C-13 13 -13 13 -16 11 C-13.22957891 8.22957891 -11.23466195 8.60203894 -7.375 8.375 C-6.18648437 8.30023438 -4.99796875 8.22546875 -3.7734375 8.1484375 C-2.40058594 8.07496094 -2.40058594 8.07496094 -1 8 C-0.67 5.36 -0.34 2.72 0 0 Z " fill="#83D4F3" transform="translate(170,101)"/>
<path d="M0 0 C0.66 0 1.32 0 2 0 C2 0.66 2 1.32 2 2 C3.32 2 4.64 2 6 2 C5.67 3.65 5.34 5.3 5 7 C4.01 7 3.02 7 2 7 C2 7.99 2 8.98 2 10 C2.99 10.33 3.98 10.66 5 11 C-3.77578475 11.92017937 -3.77578475 11.92017937 -6.77734375 9.6640625 C-8.125 8 -8.125 8 -10 5 C-8.02 5 -6.04 5 -4 5 C-4 5.99 -4 6.98 -4 8 C-2.02 7.34 -0.04 6.68 2 6 C2 5.01 2 4.02 2 3 C1.34 3 0.68 3 0 3 C0 2.01 0 1.02 0 0 Z " fill="#50C1EC" transform="translate(63,80)"/>
<path d="M0 0 C1.9375 0.8125 1.9375 0.8125 4 2 C4.33 2.99 4.66 3.98 5 5 C4.01 5.33 3.02 5.66 2 6 C1.26676204 8.01508358 1.26676204 8.01508358 1 10 C0.34 10 -0.32 10 -1 10 C-0.67 15.28 -0.34 20.56 0 26 C-0.66 26 -1.32 26 -2 26 C-2.2546343 22.23043131 -2.47432236 18.4596223 -2.6875 14.6875 C-2.76033203 13.61564453 -2.83316406 12.54378906 -2.90820312 11.43945312 C-2.96298828 10.41142578 -3.01777344 9.38339844 -3.07421875 8.32421875 C-3.13182373 7.37635498 -3.18942871 6.42849121 -3.2487793 5.4519043 C-3 3 -3 3 -1.49536133 1.16723633 C-1.00189209 0.78204834 -0.50842285 0.39686035 0 0 Z " fill="#087CB9" transform="translate(53,86)"/>
<path d="M0 0 C0.33 0.66 0.66 1.32 1 2 C5.95 2 10.9 2 16 2 C16 3.32 16 4.64 16 6 C11.05 6 6.1 6 1 6 C0 3 0 3 0 0 Z " fill="#2588C1" transform="translate(85,108)"/>
<path d="M0 0 C3.96 0 7.92 0 12 0 C12 1.98 12 3.96 12 6 C8.37 6 4.74 6 1 6 C0.67 4.02 0.34 2.04 0 0 Z " fill="#EAF1F6" transform="translate(108,106)"/>
<path d="M0 0 C0.66 0 1.32 0 2 0 C2 4.29 2 8.58 2 13 C0.35 13 -1.3 13 -3 13 C-3.33 11.35 -3.66 9.7 -4 8 C-4.66 8 -5.32 8 -6 8 C-6.33 8.66 -6.66 9.32 -7 10 C-7 9.01 -7 8.02 -7 7 C-6.01 7 -5.02 7 -4 7 C-4 6.34 -4 5.68 -4 5 C-2.68 5 -1.36 5 0 5 C0 3.35 0 1.7 0 0 Z " fill="#F8FBFB" transform="translate(48,94)"/>
<path d="M0 0 C0.66 0 1.32 0 2 0 C2.27263672 0.84884766 2.27263672 0.84884766 2.55078125 1.71484375 C2.80214844 2.44832031 3.05351562 3.18179688 3.3125 3.9375 C3.55613281 4.66839844 3.79976562 5.39929688 4.05078125 6.15234375 C4.91240441 8.35932024 4.91240441 8.35932024 8 9 C10.22574335 9.22451458 12.45581519 9.40782878 14.6875 9.5625 C15.86699219 9.64628906 17.04648438 9.73007813 18.26171875 9.81640625 C19.16535156 9.87699219 20.06898438 9.93757813 21 10 C21 10.33 21 10.66 21 11 C14.66666667 11 8.33333333 11 2 11 C1.67 10.67 1.34 10.34 1 10 C0.34 9.67 -0.32 9.34 -1 9 C-0.67 6.03 -0.34 3.06 0 0 Z " fill="#F2FAFC" transform="translate(149,104)"/>
<path d="M0 0 C2.45862401 -0.05383848 4.9160755 -0.09359038 7.375 -0.125 C8.42300781 -0.15013672 8.42300781 -0.15013672 9.4921875 -0.17578125 C11.32897486 -0.19344267 13.16601963 -0.10303261 15 0 C15.66 0.66 16.32 1.32 17 2 C16.625 4.125 16.625 4.125 16 6 C16 5.01 16 4.02 16 3 C10.72 3 5.44 3 0 3 C0 2.01 0 1.02 0 0 Z " fill="#F7F9F8" transform="translate(64,107)"/>
<path d="M0 0 C4.62 0 9.24 0 14 0 C14 0.99 14 1.98 14 3 C9.05 3.33 4.1 3.66 -1 4 C-0.67 2.68 -0.34 1.36 0 0 Z " fill="#0B7CBD" transform="translate(65,96)"/>
<path d="M0 0 C1.18851563 0.00902344 2.37703125 0.01804687 3.6015625 0.02734375 C4.51679687 0.03894531 5.43203125 0.05054687 6.375 0.0625 C6.375 1.0525 6.375 2.0425 6.375 3.0625 C1.425 3.0625 -3.525 3.0625 -8.625 3.0625 C-8.625 2.4025 -8.625 1.7425 -8.625 1.0625 C-5.74084117 -0.37957941 -3.20778472 -0.03144887 0 0 Z " fill="#F6FBFC" transform="translate(72.625,99.9375)"/>
<path d="M0 0 C0.33 0 0.66 0 1 0 C1.33 1.98 1.66 3.96 2 6 C2.33 6 2.66 6 3 6 C3.33 9.96 3.66 13.92 4 18 C2.68 18 1.36 18 0 18 C0 12.06 0 6.12 0 0 Z " fill="#7FD3F7" transform="translate(127,96)"/>
<path d="M0 0 C4.62 0 9.24 0 14 0 C14 0.99 14 1.98 14 3 C9.38 3 4.76 3 0 3 C0 2.01 0 1.02 0 0 Z " fill="#057DBC" transform="translate(87,96)"/>
<path d="M0 0 C0.33 0 0.66 0 1 0 C1.12117188 0.85464844 1.24234375 1.70929688 1.3671875 2.58984375 C1.53476562 3.69457031 1.70234375 4.79929687 1.875 5.9375 C2.03742187 7.03964844 2.19984375 8.14179687 2.3671875 9.27734375 C2.57601562 10.17582031 2.78484375 11.07429688 3 12 C3.66 12.33 4.32 12.66 5 13 C5 14.65 5 16.3 5 18 C3.02 18 1.04 18 -1 18 C-1 17.34 -1 16.68 -1 16 C-0.34 16 0.32 16 1 16 C0.83628906 15.46890625 0.67257813 14.9378125 0.50390625 14.390625 C-0.11356377 11.46123236 -0.09501925 8.74177064 -0.0625 5.75 C-0.04896484 4.13351563 -0.04896484 4.13351563 -0.03515625 2.484375 C-0.02355469 1.66453125 -0.01195312 0.8446875 0 0 Z " fill="#1F85C4" transform="translate(52,96)"/>
<path d="M0 0 C5.78591511 -0.10477512 11.29309366 0.00749455 17 1 C17 1.33 17 1.66 17 2 C12.38 2 7.76 2 3 2 C2.67 3.32 2.34 4.64 2 6 C0.68 6 -0.64 6 -2 6 C-1.34 4.02 -0.68 2.04 0 0 Z " fill="#60CDF1" transform="translate(198,108)"/>
<path d="M0 0 C3.08669204 3.08669204 3.44855089 3.91927658 4 8 C1.36 8 -1.28 8 -4 8 C-2.68 5.36 -1.36 2.72 0 0 Z " fill="#E8F5FA" transform="translate(207,99)"/>
<path d="M0 0 C0.99 0 1.98 0 3 0 C2.98839844 0.90363281 2.97679687 1.80726562 2.96484375 2.73828125 C2.95582031 3.91777344 2.94679687 5.09726563 2.9375 6.3125 C2.92589844 7.48425781 2.91429687 8.65601562 2.90234375 9.86328125 C2.85100102 13.03059195 2.85100102 13.03059195 4 16 C2.68 15.67 1.36 15.34 0 15 C0 10.05 0 5.1 0 0 Z " fill="#F4F9FB" transform="translate(58,97)"/>
<path d="M0 0 C3.3 0 6.6 0 10 0 C10.33 1.32 10.66 2.64 11 4 C7.04 4 3.08 4 -1 4 C-0.67 2.68 -0.34 1.36 0 0 Z " fill="#F8FEFD" transform="translate(88,105)"/>
<path d="M0 0 C0.66 0.99 1.32 1.98 2 3 C1.67 3.66 1.34 4.32 1 5 C1.33 5.33 1.66 5.66 2 6 C0.75 7.5625 0.75 7.5625 -1 9 C-3.1875 8.6875 -3.1875 8.6875 -5 8 C-5 6.68 -5 5.36 -5 4 C-4.01 3.67 -3.02 3.34 -2 3 C-1.34 2.01 -0.68 1.02 0 0 Z " fill="#F2F6FB" transform="translate(70,83)"/>
<path d="M0 0 C0.33 0.99 0.66 1.98 1 3 C1.66 3 2.32 3 3 3 C3 3.99 3 4.98 3 6 C0 8 0 8 -3 8 C-3 7.01 -3 6.02 -3 5 C-4.98 5 -6.96 5 -9 5 C-9 4.67 -9 4.34 -9 4 C-4.545 3.505 -4.545 3.505 0 3 C0 2.01 0 1.02 0 0 Z " fill="#D2EBF8" transform="translate(62,80)"/>
<path d="M0 0 C4.62 0 9.24 0 14 0 C14 0.33 14 0.66 14 1 C12.35 1.33 10.7 1.66 9 2 C9 2.33 9 2.66 9 3 C7.72125 3.144375 6.4425 3.28875 5.125 3.4375 C2.74307106 3.70642746 1.15547309 3.92226346 -1 5 C-0.67 3.35 -0.34 1.7 0 0 Z " fill="#C3DBE9" transform="translate(87,99)"/>
<path d="M0 0 C0.33 1.32 0.66 2.64 1 4 C3.29199177 3.85936865 5.58359186 3.71234057 7.875 3.5625 C9.15117188 3.48128906 10.42734375 3.40007812 11.7421875 3.31640625 C14.88300152 3.20793973 14.88300152 3.20793973 17 2 C16.67 4.31 16.34 6.62 16 9 C15.67 7.68 15.34 6.36 15 5 C10.05 5 5.1 5 0 5 C0 3.35 0 1.7 0 0 Z " fill="#E5F3F8" transform="translate(86,105)"/>
<path d="M0 0 C0 3.3 0 6.6 0 10 C-0.99 10 -1.98 10 -3 10 C-3.6875 6.6875 -3.6875 6.6875 -4 3 C-1.87096774 0 -1.87096774 0 0 0 Z " fill="#1686C5" transform="translate(86,102)"/>
<path d="M0 0 C1.9375 0.8125 1.9375 0.8125 4 2 C4.33 2.99 4.66 3.98 5 5 C2.36 5 -0.28 5 -3 5 C-1.125 1.125 -1.125 1.125 0 0 Z " fill="#064C7E" transform="translate(53,86)"/>
<path d="M0 0 C1.32 0 2.64 0 4 0 C4.66 1.65 5.32 3.3 6 5 C5.01 5.495 5.01 5.495 4 6 C3.53476937 7.89533342 3.53476937 7.89533342 3.375 10.0625 C3.25125 11.361875 3.1275 12.66125 3 14 C2.67 14 2.34 14 2 14 C1.93941406 13.15695313 1.87882813 12.31390625 1.81640625 11.4453125 C1.73261719 10.34960938 1.64882812 9.25390625 1.5625 8.125 C1.48128906 7.03445312 1.40007812 5.94390625 1.31640625 4.8203125 C1.16998297 2.05271029 1.16998297 2.05271029 0 0 Z " fill="#D9F1FA" transform="translate(172,96)"/>
<path d="M0 0 C1.98 0 3.96 0 6 0 C6 1.32 6 2.64 6 4 C7.32 4 8.64 4 10 4 C10 4.66 10 5.32 10 6 C7.8125 6.375 7.8125 6.375 5 6 C3.00977164 4.16038352 1.61010101 2.20813852 0 0 Z " fill="#0EA6DC" transform="translate(53,85)"/>
<path d="M0 0 C0.33 0 0.66 0 1 0 C1.02689216 1.47906892 1.04634621 2.95827483 1.0625 4.4375 C1.07410156 5.26121094 1.08570313 6.08492188 1.09765625 6.93359375 C1 9 1 9 0 10 C-1.66617115 10.04063832 -3.33388095 10.042721 -5 10 C-4.01 9.34 -3.02 8.68 -2 8 C-1.95834237 6.00043389 -1.95834237 3.99956611 -2 2 C-1.34 1.34 -0.68 0.68 0 0 Z " fill="#7DCFF1" transform="translate(148,104)"/>
<path d="M0 0 C1.32 0.33 2.64 0.66 4 1 C4.33 2.65 4.66 4.3 5 6 C3.68 6 2.36 6 1 6 C0.67 4.02 0.34 2.04 0 0 Z " fill="#84D0F2" transform="translate(214,108)"/>
<path d="M0 0 C0.33 0 0.66 0 1 0 C1.08082094 1.95766281 1.13910778 3.91626728 1.1875 5.875 C1.22230469 6.96554688 1.25710937 8.05609375 1.29296875 9.1796875 C1.19628906 10.11039063 1.09960938 11.04109375 1 12 C-2 14 -2 14 -5 14 C-5 13.34 -5 12.68 -5 12 C-4.35546875 11.77570313 -3.7109375 11.55140625 -3.046875 11.3203125 C-0.75611148 10.17110544 -0.75611148 10.17110544 -0.390625 7.6171875 C-0.34421875 6.71226563 -0.2978125 5.80734375 -0.25 4.875 C-0.19328125 3.96492188 -0.1365625 3.05484375 -0.078125 2.1171875 C-0.05234375 1.41851562 -0.0265625 0.71984375 0 0 Z " fill="#FCFAF3" transform="translate(125,104)"/>
<path d="M0 0 C1.32 0 2.64 0 4 0 C4 1.32 4 2.64 4 4 C2.68 4 1.36 4 0 4 C0 4.66 0 5.32 0 6 C-0.99 6 -1.98 6 -3 6 C-2.67 5.01 -2.34 4.02 -2 3 C-1.34 3 -0.68 3 0 3 C0 2.01 0 1.02 0 0 Z " fill="#40688A" transform="translate(44,95)"/>
<path d="M0 0 C0.99 0.33 1.98 0.66 3 1 C4.1875 3.5625 4.1875 3.5625 5 6 C3 6 1 6 -1 6 C-1.042721 4.33388095 -1.04063832 2.66617115 -1 1 C-0.67 0.67 -0.34 0.34 0 0 Z " fill="#F1FBFC" transform="translate(176,101)"/>
<path d="M0 0 C1.32 0.66 2.64 1.32 4 2 C4.1875 4.375 4.1875 4.375 4 7 C3.01 7.66 2.02 8.32 1 9 C-1.125 2.25 -1.125 2.25 0 0 Z " fill="#77CEF4" transform="translate(170,96)"/>
<path d="M0 0 C0.99 0.33 1.98 0.66 3 1 C4.1875 4.0625 4.1875 4.0625 5 7 C3.68 6.67 2.36 6.34 1 6 C0.67 4.02 0.34 2.04 0 0 Z " fill="#66CEF3" transform="translate(183,106)"/>
<path d="M0 0 C0.99 0 1.98 0 3 0 C3 1.65 3 3.3 3 5 C1.68 5 0.36 5 -1 5 C-0.67 3.35 -0.34 1.7 0 0 Z " fill="#D0EDF5" transform="translate(46,102)"/>
<path d="M0 0 C0.33 0.66 0.66 1.32 1 2 C0.34 2 -0.32 2 -1 2 C-1 2.66 -1 3.32 -1 4 C-0.34 4 0.32 4 1 4 C0.67 4.99 0.34 5.98 0 7 C-0.99 7.33 -1.98 7.66 -3 8 C-2.74438677 5.6568787 -2.40729228 3.32156597 -2 1 C-1.34 0.67 -0.68 0.34 0 0 Z " fill="#83D1F3" transform="translate(155,96)"/>
<path d="M0 0 C0.33 0.66 0.66 1.32 1 2 C1.66 2 2.32 2 3 2 C2.67 3.32 2.34 4.64 2 6 C0.68 6 -0.64 6 -2 6 C-1.34 4.02 -0.68 2.04 0 0 Z " fill="#7CD1EE" transform="translate(198,108)"/>
<path d="M0 0 C2.475 0.495 2.475 0.495 5 1 C5.33 2.32 5.66 3.64 6 5 C3 5 3 5 1.3125 3.625 C0 2 0 2 0 0 Z " fill="#6ED1F6" transform="translate(176,96)"/>
<path d="M0 0 C1.65 0 3.3 0 5 0 C4.34 1.32 3.68 2.64 3 4 C1.35 3.67 -0.3 3.34 -2 3 C-1.34 2.67 -0.68 2.34 0 2 C0 1.34 0 0.68 0 0 Z " fill="#65C7E7" transform="translate(47,87)"/>
<path d="M0 0 C1.485 0.99 1.485 0.99 3 2 C2.34 4.64 1.68 7.28 1 10 C0.67 10 0.34 10 0 10 C0 6.7 0 3.4 0 0 Z " fill="#EFFAF7" transform="translate(133,102)"/>
</svg>
